<mxfile host="app.diagrams.net" modified="2023-06-26T19:58:29.162Z" agent="Mozilla/5.0 (Windows NT 10.0; Win64; x64) AppleWebKit/537.36 (KHTML, like Gecko) Chrome/114.0.0.0 Safari/537.36" etag="rGv4gu9a87l1KX6IImVn" version="21.5.0" type="google" pages="3">
  <diagram id="R2lEEEUBdFMjLlhIrx00" name="Page-1">
    <mxGraphModel grid="1" page="1" gridSize="10" guides="1" tooltips="1" connect="1" arrows="1" fold="1" pageScale="1" pageWidth="827" pageHeight="1169" math="0" shadow="0" extFonts="Permanent Marker^https://fonts.googleapis.com/css?family=Permanent+Marker">
      <root>
        <mxCell id="0" />
        <mxCell id="1" parent="0" />
        <mxCell id="Tpi24EYIQvbu_f0LTNpD-1" value="Alumnos" style="rounded=0;whiteSpace=wrap;html=1;" vertex="1" parent="1">
          <mxGeometry x="110" y="120" width="150" height="60" as="geometry" />
        </mxCell>
        <mxCell id="Tpi24EYIQvbu_f0LTNpD-2" value="Cursos" style="rounded=0;whiteSpace=wrap;html=1;" vertex="1" parent="1">
          <mxGeometry x="550" y="120" width="120" height="60" as="geometry" />
        </mxCell>
        <mxCell id="Tpi24EYIQvbu_f0LTNpD-3" value="Docentes" style="rounded=0;whiteSpace=wrap;html=1;" vertex="1" parent="1">
          <mxGeometry x="110" y="310" width="120" height="60" as="geometry" />
        </mxCell>
        <mxCell id="Tpi24EYIQvbu_f0LTNpD-4" value="Nombre" style="ellipse;whiteSpace=wrap;html=1;" vertex="1" parent="1">
          <mxGeometry x="60" y="30" width="80" height="40" as="geometry" />
        </mxCell>
        <mxCell id="Tpi24EYIQvbu_f0LTNpD-5" value="" style="endArrow=baseDash;html=1;rounded=0;entryX=1;entryY=1;entryDx=0;entryDy=0;endFill=0;" edge="1" parent="1" source="Tpi24EYIQvbu_f0LTNpD-1" target="Tpi24EYIQvbu_f0LTNpD-4">
          <mxGeometry width="50" height="50" relative="1" as="geometry">
            <mxPoint x="400" y="260" as="sourcePoint" />
            <mxPoint x="450" y="210" as="targetPoint" />
          </mxGeometry>
        </mxCell>
        <mxCell id="Tpi24EYIQvbu_f0LTNpD-6" value="Nombre" style="ellipse;whiteSpace=wrap;html=1;" vertex="1" parent="1">
          <mxGeometry x="120" y="390" width="80" height="40" as="geometry" />
        </mxCell>
        <mxCell id="Tpi24EYIQvbu_f0LTNpD-7" value="" style="endArrow=classic;html=1;rounded=0;exitX=0.25;exitY=1;exitDx=0;exitDy=0;entryX=1;entryY=0;entryDx=0;entryDy=0;" edge="1" parent="1" source="Tpi24EYIQvbu_f0LTNpD-3" target="Tpi24EYIQvbu_f0LTNpD-6">
          <mxGeometry width="50" height="50" relative="1" as="geometry">
            <mxPoint x="400" y="260" as="sourcePoint" />
            <mxPoint x="380" y="370" as="targetPoint" />
          </mxGeometry>
        </mxCell>
        <mxCell id="Tpi24EYIQvbu_f0LTNpD-8" value="Pertenece" style="rhombus;whiteSpace=wrap;html=1;" vertex="1" parent="1">
          <mxGeometry x="360" y="125" width="90" height="50" as="geometry" />
        </mxCell>
        <mxCell id="Tpi24EYIQvbu_f0LTNpD-9" value="" style="endArrow=none;html=1;rounded=0;entryX=0;entryY=0.5;entryDx=0;entryDy=0;exitX=1;exitY=0.5;exitDx=0;exitDy=0;" edge="1" parent="1" source="Tpi24EYIQvbu_f0LTNpD-1" target="Tpi24EYIQvbu_f0LTNpD-8">
          <mxGeometry width="50" height="50" relative="1" as="geometry">
            <mxPoint x="400" y="260" as="sourcePoint" />
            <mxPoint x="450" y="210" as="targetPoint" />
          </mxGeometry>
        </mxCell>
        <mxCell id="Tpi24EYIQvbu_f0LTNpD-10" value="" style="endArrow=none;html=1;rounded=0;entryX=0;entryY=0.5;entryDx=0;entryDy=0;exitX=1;exitY=0.5;exitDx=0;exitDy=0;" edge="1" parent="1" source="Tpi24EYIQvbu_f0LTNpD-8" target="Tpi24EYIQvbu_f0LTNpD-2">
          <mxGeometry width="50" height="50" relative="1" as="geometry">
            <mxPoint x="470" y="170" as="sourcePoint" />
            <mxPoint x="450" y="210" as="targetPoint" />
          </mxGeometry>
        </mxCell>
        <mxCell id="Tpi24EYIQvbu_f0LTNpD-12" value="Aula" style="rounded=0;whiteSpace=wrap;html=1;" vertex="1" parent="1">
          <mxGeometry x="550" y="350" width="130" height="50" as="geometry" />
        </mxCell>
        <mxCell id="Tpi24EYIQvbu_f0LTNpD-14" style="edgeStyle=orthogonalEdgeStyle;rounded=0;orthogonalLoop=1;jettySize=auto;html=1;exitX=0.5;exitY=0;exitDx=0;exitDy=0;entryX=0.558;entryY=1;entryDx=0;entryDy=0;entryPerimeter=0;" edge="1" parent="1" source="Tpi24EYIQvbu_f0LTNpD-13" target="Tpi24EYIQvbu_f0LTNpD-2">
          <mxGeometry relative="1" as="geometry" />
        </mxCell>
        <mxCell id="Tpi24EYIQvbu_f0LTNpD-15" style="edgeStyle=orthogonalEdgeStyle;rounded=0;orthogonalLoop=1;jettySize=auto;html=1;exitX=0.5;exitY=1;exitDx=0;exitDy=0;entryX=0.554;entryY=-0.06;entryDx=0;entryDy=0;entryPerimeter=0;" edge="1" parent="1" source="Tpi24EYIQvbu_f0LTNpD-13" target="Tpi24EYIQvbu_f0LTNpD-12">
          <mxGeometry relative="1" as="geometry" />
        </mxCell>
        <mxCell id="Tpi24EYIQvbu_f0LTNpD-13" value="Se imparte" style="rhombus;whiteSpace=wrap;html=1;" vertex="1" parent="1">
          <mxGeometry x="565" y="240" width="105" height="70" as="geometry" />
        </mxCell>
        <mxCell id="Tpi24EYIQvbu_f0LTNpD-16" value="(1,N)" style="text;html=1;strokeColor=none;fillColor=none;align=center;verticalAlign=middle;whiteSpace=wrap;rounded=0;" vertex="1" parent="1">
          <mxGeometry x="560" y="200" width="60" height="30" as="geometry" />
        </mxCell>
        <mxCell id="Tpi24EYIQvbu_f0LTNpD-17" value="(1,1)" style="text;html=1;strokeColor=none;fillColor=none;align=center;verticalAlign=middle;whiteSpace=wrap;rounded=0;" vertex="1" parent="1">
          <mxGeometry x="560" y="310" width="60" height="30" as="geometry" />
        </mxCell>
        <mxCell id="Tpi24EYIQvbu_f0LTNpD-18" value="Alumno" style="rounded=0;whiteSpace=wrap;html=1;" vertex="1" parent="1">
          <mxGeometry x="40" y="510" width="110" height="40" as="geometry" />
        </mxCell>
        <mxCell id="Tpi24EYIQvbu_f0LTNpD-19" value="Asignatura" style="rounded=0;whiteSpace=wrap;html=1;" vertex="1" parent="1">
          <mxGeometry x="520" y="515" width="120" height="35" as="geometry" />
        </mxCell>
        <mxCell id="Tpi24EYIQvbu_f0LTNpD-29" style="edgeStyle=orthogonalEdgeStyle;rounded=0;orthogonalLoop=1;jettySize=auto;html=1;exitX=0.5;exitY=1;exitDx=0;exitDy=0;entryX=0;entryY=0.5;entryDx=0;entryDy=0;" edge="1" parent="1" source="Tpi24EYIQvbu_f0LTNpD-20" target="Tpi24EYIQvbu_f0LTNpD-27">
          <mxGeometry relative="1" as="geometry" />
        </mxCell>
        <mxCell id="Tpi24EYIQvbu_f0LTNpD-32" style="edgeStyle=orthogonalEdgeStyle;rounded=0;orthogonalLoop=1;jettySize=auto;html=1;exitX=0.5;exitY=0;exitDx=0;exitDy=0;" edge="1" parent="1" source="Tpi24EYIQvbu_f0LTNpD-20" target="Tpi24EYIQvbu_f0LTNpD-18">
          <mxGeometry relative="1" as="geometry" />
        </mxCell>
        <mxCell id="Tpi24EYIQvbu_f0LTNpD-20" value="Cursa" style="rhombus;whiteSpace=wrap;html=1;" vertex="1" parent="1">
          <mxGeometry x="50" y="590" width="80" height="80" as="geometry" />
        </mxCell>
        <mxCell id="Tpi24EYIQvbu_f0LTNpD-23" value="(1,N)" style="text;html=1;strokeColor=none;fillColor=none;align=center;verticalAlign=middle;whiteSpace=wrap;rounded=0;" vertex="1" parent="1">
          <mxGeometry x="160" y="660" width="60" height="30" as="geometry" />
        </mxCell>
        <mxCell id="Tpi24EYIQvbu_f0LTNpD-25" value="(1,N)" style="text;html=1;strokeColor=none;fillColor=none;align=center;verticalAlign=middle;whiteSpace=wrap;rounded=0;" vertex="1" parent="1">
          <mxGeometry x="420" y="660" width="60" height="30" as="geometry" />
        </mxCell>
        <mxCell id="Tpi24EYIQvbu_f0LTNpD-26" value="No deseable&lt;br&gt;" style="text;html=1;strokeColor=none;fillColor=none;align=center;verticalAlign=middle;whiteSpace=wrap;rounded=0;" vertex="1" parent="1">
          <mxGeometry x="330" y="430" width="60" height="30" as="geometry" />
        </mxCell>
        <mxCell id="Tpi24EYIQvbu_f0LTNpD-27" value="AlumnoXAsignatura" style="rounded=0;whiteSpace=wrap;html=1;" vertex="1" parent="1">
          <mxGeometry x="280" y="680" width="120" height="60" as="geometry" />
        </mxCell>
        <mxCell id="Tpi24EYIQvbu_f0LTNpD-31" style="edgeStyle=orthogonalEdgeStyle;rounded=0;orthogonalLoop=1;jettySize=auto;html=1;exitX=0.5;exitY=0;exitDx=0;exitDy=0;entryX=0.5;entryY=1;entryDx=0;entryDy=0;" edge="1" parent="1" source="Tpi24EYIQvbu_f0LTNpD-28" target="Tpi24EYIQvbu_f0LTNpD-19">
          <mxGeometry relative="1" as="geometry" />
        </mxCell>
        <mxCell id="woqkvJJ4d4MIE3I9XP-C-3" style="edgeStyle=orthogonalEdgeStyle;rounded=0;orthogonalLoop=1;jettySize=auto;html=1;exitX=0.5;exitY=1;exitDx=0;exitDy=0;entryX=1;entryY=0.5;entryDx=0;entryDy=0;endArrow=ERoneToMany;endFill=0;" edge="1" parent="1" source="Tpi24EYIQvbu_f0LTNpD-28" target="Tpi24EYIQvbu_f0LTNpD-27">
          <mxGeometry relative="1" as="geometry" />
        </mxCell>
        <mxCell id="Tpi24EYIQvbu_f0LTNpD-28" value="Cursa" style="rhombus;whiteSpace=wrap;html=1;" vertex="1" parent="1">
          <mxGeometry x="540" y="590" width="80" height="80" as="geometry" />
        </mxCell>
        <mxCell id="Tpi24EYIQvbu_f0LTNpD-33" value="(1,1)" style="text;html=1;strokeColor=none;fillColor=none;align=center;verticalAlign=middle;whiteSpace=wrap;rounded=0;" vertex="1" parent="1">
          <mxGeometry x="100" y="560" width="60" height="30" as="geometry" />
        </mxCell>
        <mxCell id="Tpi24EYIQvbu_f0LTNpD-34" value="(1,1)" style="text;html=1;strokeColor=none;fillColor=none;align=center;verticalAlign=middle;whiteSpace=wrap;rounded=0;" vertex="1" parent="1">
          <mxGeometry x="520" y="550" width="60" height="30" as="geometry" />
        </mxCell>
      </root>
    </mxGraphModel>
  </diagram>
  <diagram id="KR9M8mnmIGN-4xtgPtGp" name="Primeros Ejer">
    <mxGraphModel grid="1" page="1" gridSize="10" guides="1" tooltips="1" connect="1" arrows="1" fold="1" pageScale="1" pageWidth="827" pageHeight="1169" math="0" shadow="0">
      <root>
        <mxCell id="0" />
        <mxCell id="1" parent="0" />
        <mxCell id="fFIxW6WDhhN-VQBqnbyI-1" value="Un pais y sus poblaciones (pob total)" style="text;html=1;strokeColor=none;fillColor=none;align=center;verticalAlign=middle;whiteSpace=wrap;rounded=0;" vertex="1" parent="1">
          <mxGeometry x="20" y="10" width="260" height="30" as="geometry" />
        </mxCell>
        <mxCell id="fFIxW6WDhhN-VQBqnbyI-5" style="edgeStyle=orthogonalEdgeStyle;rounded=0;orthogonalLoop=1;jettySize=auto;html=1;exitX=1;exitY=0.5;exitDx=0;exitDy=0;entryX=0;entryY=0.5;entryDx=0;entryDy=0;" edge="1" parent="1" source="fFIxW6WDhhN-VQBqnbyI-2" target="fFIxW6WDhhN-VQBqnbyI-4">
          <mxGeometry relative="1" as="geometry" />
        </mxCell>
        <mxCell id="fFIxW6WDhhN-VQBqnbyI-2" value="Paises" style="rounded=0;whiteSpace=wrap;html=1;" vertex="1" parent="1">
          <mxGeometry x="30" y="60" width="120" height="40" as="geometry" />
        </mxCell>
        <mxCell id="fFIxW6WDhhN-VQBqnbyI-6" style="edgeStyle=orthogonalEdgeStyle;rounded=0;orthogonalLoop=1;jettySize=auto;html=1;exitX=0;exitY=0.5;exitDx=0;exitDy=0;entryX=1;entryY=0.5;entryDx=0;entryDy=0;" edge="1" parent="1" source="fFIxW6WDhhN-VQBqnbyI-3" target="fFIxW6WDhhN-VQBqnbyI-4">
          <mxGeometry relative="1" as="geometry" />
        </mxCell>
        <mxCell id="fFIxW6WDhhN-VQBqnbyI-3" value="Poblaciones" style="rounded=0;whiteSpace=wrap;html=1;" vertex="1" parent="1">
          <mxGeometry x="440" y="60" width="120" height="40" as="geometry" />
        </mxCell>
        <mxCell id="fFIxW6WDhhN-VQBqnbyI-4" value="Tiene" style="rhombus;whiteSpace=wrap;html=1;" vertex="1" parent="1">
          <mxGeometry x="240" y="45" width="120" height="70" as="geometry" />
        </mxCell>
        <mxCell id="fFIxW6WDhhN-VQBqnbyI-7" value="(1,1)" style="text;html=1;strokeColor=none;fillColor=none;align=center;verticalAlign=middle;whiteSpace=wrap;rounded=0;" vertex="1" parent="1">
          <mxGeometry x="160" y="85" width="60" height="30" as="geometry" />
        </mxCell>
        <mxCell id="fFIxW6WDhhN-VQBqnbyI-8" value="(1,1)" style="text;html=1;strokeColor=none;fillColor=none;align=center;verticalAlign=middle;whiteSpace=wrap;rounded=0;" vertex="1" parent="1">
          <mxGeometry x="360" y="85" width="60" height="30" as="geometry" />
        </mxCell>
        <mxCell id="fFIxW6WDhhN-VQBqnbyI-9" value="Almacenes - Productos" style="text;html=1;strokeColor=none;fillColor=none;align=center;verticalAlign=middle;whiteSpace=wrap;rounded=0;" vertex="1" parent="1">
          <mxGeometry x="-30" y="160" width="260" height="30" as="geometry" />
        </mxCell>
        <mxCell id="fFIxW6WDhhN-VQBqnbyI-13" style="edgeStyle=orthogonalEdgeStyle;rounded=0;orthogonalLoop=1;jettySize=auto;html=1;exitX=1;exitY=0.5;exitDx=0;exitDy=0;entryX=0;entryY=0.5;entryDx=0;entryDy=0;" edge="1" parent="1" source="fFIxW6WDhhN-VQBqnbyI-10" target="fFIxW6WDhhN-VQBqnbyI-12">
          <mxGeometry relative="1" as="geometry" />
        </mxCell>
        <mxCell id="fFIxW6WDhhN-VQBqnbyI-10" value="Almacen" style="rounded=0;whiteSpace=wrap;html=1;" vertex="1" parent="1">
          <mxGeometry x="30" y="200" width="120" height="40" as="geometry" />
        </mxCell>
        <mxCell id="fFIxW6WDhhN-VQBqnbyI-14" style="edgeStyle=orthogonalEdgeStyle;rounded=0;orthogonalLoop=1;jettySize=auto;html=1;exitX=0;exitY=0.5;exitDx=0;exitDy=0;entryX=1;entryY=0.5;entryDx=0;entryDy=0;" edge="1" parent="1" source="fFIxW6WDhhN-VQBqnbyI-11" target="fFIxW6WDhhN-VQBqnbyI-12">
          <mxGeometry relative="1" as="geometry" />
        </mxCell>
        <mxCell id="fFIxW6WDhhN-VQBqnbyI-11" value="Productos" style="rounded=0;whiteSpace=wrap;html=1;" vertex="1" parent="1">
          <mxGeometry x="440" y="200" width="120" height="40" as="geometry" />
        </mxCell>
        <mxCell id="fFIxW6WDhhN-VQBqnbyI-12" value="Tiene" style="rhombus;whiteSpace=wrap;html=1;" vertex="1" parent="1">
          <mxGeometry x="220" y="190" width="130" height="60" as="geometry" />
        </mxCell>
        <mxCell id="fFIxW6WDhhN-VQBqnbyI-15" value="(1,N)" style="text;html=1;strokeColor=none;fillColor=none;align=center;verticalAlign=middle;whiteSpace=wrap;rounded=0;" vertex="1" parent="1">
          <mxGeometry x="370" y="220" width="60" height="30" as="geometry" />
        </mxCell>
        <mxCell id="fFIxW6WDhhN-VQBqnbyI-16" value="(0,N)" style="text;html=1;strokeColor=none;fillColor=none;align=center;verticalAlign=middle;whiteSpace=wrap;rounded=0;" vertex="1" parent="1">
          <mxGeometry x="150" y="220" width="60" height="30" as="geometry" />
        </mxCell>
        <mxCell id="fFIxW6WDhhN-VQBqnbyI-22" style="edgeStyle=orthogonalEdgeStyle;rounded=0;orthogonalLoop=1;jettySize=auto;html=1;exitX=1;exitY=0.5;exitDx=0;exitDy=0;entryX=0.062;entryY=0.517;entryDx=0;entryDy=0;entryPerimeter=0;" edge="1" parent="1" source="fFIxW6WDhhN-VQBqnbyI-17" target="fFIxW6WDhhN-VQBqnbyI-21">
          <mxGeometry relative="1" as="geometry" />
        </mxCell>
        <mxCell id="fFIxW6WDhhN-VQBqnbyI-17" value="Discos" style="rounded=0;whiteSpace=wrap;html=1;" vertex="1" parent="1">
          <mxGeometry x="30" y="300" width="120" height="40" as="geometry" />
        </mxCell>
        <mxCell id="fFIxW6WDhhN-VQBqnbyI-18" style="edgeStyle=orthogonalEdgeStyle;rounded=0;orthogonalLoop=1;jettySize=auto;html=1;exitX=0.5;exitY=1;exitDx=0;exitDy=0;" edge="1" parent="1" source="fFIxW6WDhhN-VQBqnbyI-17" target="fFIxW6WDhhN-VQBqnbyI-17">
          <mxGeometry relative="1" as="geometry" />
        </mxCell>
        <mxCell id="fFIxW6WDhhN-VQBqnbyI-19" style="edgeStyle=orthogonalEdgeStyle;rounded=0;orthogonalLoop=1;jettySize=auto;html=1;exitX=0.5;exitY=1;exitDx=0;exitDy=0;" edge="1" parent="1" source="fFIxW6WDhhN-VQBqnbyI-17" target="fFIxW6WDhhN-VQBqnbyI-17">
          <mxGeometry relative="1" as="geometry" />
        </mxCell>
        <mxCell id="fFIxW6WDhhN-VQBqnbyI-23" style="edgeStyle=orthogonalEdgeStyle;rounded=0;orthogonalLoop=1;jettySize=auto;html=1;exitX=0;exitY=0.5;exitDx=0;exitDy=0;" edge="1" parent="1" source="fFIxW6WDhhN-VQBqnbyI-20">
          <mxGeometry relative="1" as="geometry">
            <mxPoint x="360" y="320" as="targetPoint" />
          </mxGeometry>
        </mxCell>
        <mxCell id="fFIxW6WDhhN-VQBqnbyI-20" value="Canciones" style="rounded=0;whiteSpace=wrap;html=1;" vertex="1" parent="1">
          <mxGeometry x="460" y="300" width="120" height="40" as="geometry" />
        </mxCell>
        <mxCell id="fFIxW6WDhhN-VQBqnbyI-21" value="Tiene" style="rhombus;whiteSpace=wrap;html=1;" vertex="1" parent="1">
          <mxGeometry x="220" y="290" width="130" height="60" as="geometry" />
        </mxCell>
        <mxCell id="fFIxW6WDhhN-VQBqnbyI-24" value="(1,N)" style="text;html=1;strokeColor=none;fillColor=none;align=center;verticalAlign=middle;whiteSpace=wrap;rounded=0;" vertex="1" parent="1">
          <mxGeometry x="150" y="320" width="60" height="30" as="geometry" />
        </mxCell>
        <mxCell id="fFIxW6WDhhN-VQBqnbyI-25" value="(0,N)" style="text;html=1;strokeColor=none;fillColor=none;align=center;verticalAlign=middle;whiteSpace=wrap;rounded=0;" vertex="1" parent="1">
          <mxGeometry x="400" y="320" width="60" height="30" as="geometry" />
        </mxCell>
        <mxCell id="fFIxW6WDhhN-VQBqnbyI-29" style="edgeStyle=orthogonalEdgeStyle;rounded=0;orthogonalLoop=1;jettySize=auto;html=1;exitX=1;exitY=0.5;exitDx=0;exitDy=0;entryX=0;entryY=0.5;entryDx=0;entryDy=0;" edge="1" parent="1" source="fFIxW6WDhhN-VQBqnbyI-26" target="fFIxW6WDhhN-VQBqnbyI-28">
          <mxGeometry relative="1" as="geometry" />
        </mxCell>
        <mxCell id="fFIxW6WDhhN-VQBqnbyI-26" value="Marcas" style="rounded=0;whiteSpace=wrap;html=1;" vertex="1" parent="1">
          <mxGeometry x="30" y="420" width="120" height="40" as="geometry" />
        </mxCell>
        <mxCell id="fFIxW6WDhhN-VQBqnbyI-30" style="edgeStyle=orthogonalEdgeStyle;rounded=0;orthogonalLoop=1;jettySize=auto;html=1;exitX=0;exitY=0.5;exitDx=0;exitDy=0;entryX=1;entryY=0.5;entryDx=0;entryDy=0;" edge="1" parent="1" source="fFIxW6WDhhN-VQBqnbyI-27" target="fFIxW6WDhhN-VQBqnbyI-28">
          <mxGeometry relative="1" as="geometry" />
        </mxCell>
        <mxCell id="fFIxW6WDhhN-VQBqnbyI-27" value="Modelos" style="rounded=0;whiteSpace=wrap;html=1;" vertex="1" parent="1">
          <mxGeometry x="440" y="420" width="120" height="40" as="geometry" />
        </mxCell>
        <mxCell id="fFIxW6WDhhN-VQBqnbyI-28" value="Pertenece" style="rhombus;whiteSpace=wrap;html=1;" vertex="1" parent="1">
          <mxGeometry x="220" y="410" width="130" height="60" as="geometry" />
        </mxCell>
        <mxCell id="fFIxW6WDhhN-VQBqnbyI-31" value="(1,1)" style="text;html=1;strokeColor=none;fillColor=none;align=center;verticalAlign=middle;whiteSpace=wrap;rounded=0;" vertex="1" parent="1">
          <mxGeometry x="150" y="440" width="60" height="30" as="geometry" />
        </mxCell>
        <mxCell id="fFIxW6WDhhN-VQBqnbyI-32" value="(1,N)" style="text;html=1;strokeColor=none;fillColor=none;align=center;verticalAlign=middle;whiteSpace=wrap;rounded=0;" vertex="1" parent="1">
          <mxGeometry x="380" y="440" width="60" height="30" as="geometry" />
        </mxCell>
        <mxCell id="fFIxW6WDhhN-VQBqnbyI-36" style="edgeStyle=orthogonalEdgeStyle;rounded=0;orthogonalLoop=1;jettySize=auto;html=1;exitX=1;exitY=0.5;exitDx=0;exitDy=0;entryX=0;entryY=0.5;entryDx=0;entryDy=0;" edge="1" parent="1" source="fFIxW6WDhhN-VQBqnbyI-33" target="fFIxW6WDhhN-VQBqnbyI-35">
          <mxGeometry relative="1" as="geometry" />
        </mxCell>
        <mxCell id="fFIxW6WDhhN-VQBqnbyI-33" value="Persona" style="rounded=0;whiteSpace=wrap;html=1;" vertex="1" parent="1">
          <mxGeometry x="30" y="525" width="120" height="45" as="geometry" />
        </mxCell>
        <mxCell id="fFIxW6WDhhN-VQBqnbyI-37" style="edgeStyle=orthogonalEdgeStyle;rounded=0;orthogonalLoop=1;jettySize=auto;html=1;exitX=0;exitY=0.5;exitDx=0;exitDy=0;entryX=1;entryY=0.5;entryDx=0;entryDy=0;" edge="1" parent="1" source="fFIxW6WDhhN-VQBqnbyI-34" target="fFIxW6WDhhN-VQBqnbyI-35">
          <mxGeometry relative="1" as="geometry" />
        </mxCell>
        <mxCell id="fFIxW6WDhhN-VQBqnbyI-34" value="DNI" style="rounded=0;whiteSpace=wrap;html=1;" vertex="1" parent="1">
          <mxGeometry x="440" y="520" width="120" height="45" as="geometry" />
        </mxCell>
        <mxCell id="fFIxW6WDhhN-VQBqnbyI-35" value="Tiene" style="rhombus;whiteSpace=wrap;html=1;" vertex="1" parent="1">
          <mxGeometry x="220" y="512.5" width="130" height="60" as="geometry" />
        </mxCell>
        <mxCell id="fFIxW6WDhhN-VQBqnbyI-38" value="(0,1)" style="text;html=1;strokeColor=none;fillColor=none;align=center;verticalAlign=middle;whiteSpace=wrap;rounded=0;" vertex="1" parent="1">
          <mxGeometry x="150" y="542.5" width="60" height="30" as="geometry" />
        </mxCell>
        <mxCell id="fFIxW6WDhhN-VQBqnbyI-39" value="(1,1)" style="text;html=1;strokeColor=none;fillColor=none;align=center;verticalAlign=middle;whiteSpace=wrap;rounded=0;" vertex="1" parent="1">
          <mxGeometry x="370" y="540" width="60" height="30" as="geometry" />
        </mxCell>
        <mxCell id="fFIxW6WDhhN-VQBqnbyI-43" style="edgeStyle=orthogonalEdgeStyle;rounded=0;orthogonalLoop=1;jettySize=auto;html=1;exitX=1;exitY=0.5;exitDx=0;exitDy=0;entryX=0;entryY=0.5;entryDx=0;entryDy=0;" edge="1" parent="1" source="fFIxW6WDhhN-VQBqnbyI-44" target="fFIxW6WDhhN-VQBqnbyI-47">
          <mxGeometry relative="1" as="geometry" />
        </mxCell>
        <mxCell id="fFIxW6WDhhN-VQBqnbyI-44" value="Cafe" style="rounded=0;whiteSpace=wrap;html=1;" vertex="1" parent="1">
          <mxGeometry x="30" y="694" width="120" height="40" as="geometry" />
        </mxCell>
        <mxCell id="fFIxW6WDhhN-VQBqnbyI-45" style="edgeStyle=orthogonalEdgeStyle;rounded=0;orthogonalLoop=1;jettySize=auto;html=1;exitX=0;exitY=0.5;exitDx=0;exitDy=0;entryX=1;entryY=0.5;entryDx=0;entryDy=0;" edge="1" parent="1" source="fFIxW6WDhhN-VQBqnbyI-46" target="fFIxW6WDhhN-VQBqnbyI-47">
          <mxGeometry relative="1" as="geometry" />
        </mxCell>
        <mxCell id="fFIxW6WDhhN-VQBqnbyI-46" value="Granos" style="rounded=0;whiteSpace=wrap;html=1;" vertex="1" parent="1">
          <mxGeometry x="440" y="694" width="120" height="40" as="geometry" />
        </mxCell>
        <mxCell id="fFIxW6WDhhN-VQBqnbyI-47" value="Pertenece" style="rhombus;whiteSpace=wrap;html=1;" vertex="1" parent="1">
          <mxGeometry x="220" y="684" width="130" height="60" as="geometry" />
        </mxCell>
        <mxCell id="fFIxW6WDhhN-VQBqnbyI-48" value="(1,N)" style="text;html=1;strokeColor=none;fillColor=none;align=center;verticalAlign=middle;whiteSpace=wrap;rounded=0;" vertex="1" parent="1">
          <mxGeometry x="150" y="714" width="60" height="30" as="geometry" />
        </mxCell>
        <mxCell id="fFIxW6WDhhN-VQBqnbyI-49" value="(1,N)" style="text;html=1;strokeColor=none;fillColor=none;align=center;verticalAlign=middle;whiteSpace=wrap;rounded=0;" vertex="1" parent="1">
          <mxGeometry x="380" y="714" width="60" height="30" as="geometry" />
        </mxCell>
        <mxCell id="fFIxW6WDhhN-VQBqnbyI-50" value="Empleado" style="rounded=0;whiteSpace=wrap;html=1;" vertex="1" parent="1">
          <mxGeometry x="40" y="880" width="120" height="40" as="geometry" />
        </mxCell>
        <mxCell id="fFIxW6WDhhN-VQBqnbyI-55" style="edgeStyle=orthogonalEdgeStyle;rounded=0;orthogonalLoop=1;jettySize=auto;html=1;exitX=0.5;exitY=0;exitDx=0;exitDy=0;entryX=0.575;entryY=1.025;entryDx=0;entryDy=0;entryPerimeter=0;" edge="1" parent="1" source="fFIxW6WDhhN-VQBqnbyI-53" target="fFIxW6WDhhN-VQBqnbyI-50">
          <mxGeometry relative="1" as="geometry" />
        </mxCell>
        <mxCell id="fFIxW6WDhhN-VQBqnbyI-53" value="Movil" style="ellipse;whiteSpace=wrap;html=1;" vertex="1" parent="1">
          <mxGeometry x="130" y="970" width="70" height="40" as="geometry" />
        </mxCell>
        <mxCell id="fFIxW6WDhhN-VQBqnbyI-56" style="edgeStyle=orthogonalEdgeStyle;rounded=0;orthogonalLoop=1;jettySize=auto;html=1;exitX=0.5;exitY=0;exitDx=0;exitDy=0;" edge="1" parent="1" source="fFIxW6WDhhN-VQBqnbyI-54">
          <mxGeometry relative="1" as="geometry">
            <mxPoint x="105" y="920" as="targetPoint" />
          </mxGeometry>
        </mxCell>
        <mxCell id="fFIxW6WDhhN-VQBqnbyI-54" value="TelefonoParticular" style="ellipse;whiteSpace=wrap;html=1;" vertex="1" parent="1">
          <mxGeometry x="50" y="1030" width="110" height="40" as="geometry" />
        </mxCell>
        <mxCell id="fFIxW6WDhhN-VQBqnbyI-57" value="Telefonos" style="rounded=0;whiteSpace=wrap;html=1;" vertex="1" parent="1">
          <mxGeometry x="400" y="860" width="120" height="60" as="geometry" />
        </mxCell>
        <mxCell id="fFIxW6WDhhN-VQBqnbyI-58" value="EmpleadoXTelefono" style="rounded=0;whiteSpace=wrap;html=1;" vertex="1" parent="1">
          <mxGeometry x="260" y="1010" width="120" height="60" as="geometry" />
        </mxCell>
      </root>
    </mxGraphModel>
  </diagram>
  <diagram id="o8XensUMxfULijx0zrpA" name="Página-3">
    <mxGraphModel grid="1" page="1" gridSize="10" guides="1" tooltips="1" connect="1" arrows="1" fold="1" pageScale="1" pageWidth="827" pageHeight="1169" math="0" shadow="0">
      <root>
        <mxCell id="0" />
        <mxCell id="1" parent="0" />
        <mxCell id="ZRlwQnyBhKhICBzXvatv-7" style="edgeStyle=orthogonalEdgeStyle;rounded=0;orthogonalLoop=1;jettySize=auto;html=1;exitX=1;exitY=0.5;exitDx=0;exitDy=0;entryX=0;entryY=0.5;entryDx=0;entryDy=0;" edge="1" parent="1" source="ZRlwQnyBhKhICBzXvatv-1" target="ZRlwQnyBhKhICBzXvatv-4">
          <mxGeometry relative="1" as="geometry" />
        </mxCell>
        <mxCell id="ZRlwQnyBhKhICBzXvatv-1" value="Alumnos" style="whiteSpace=wrap;html=1;align=center;" vertex="1" parent="1">
          <mxGeometry x="70" y="40" width="100" height="40" as="geometry" />
        </mxCell>
        <mxCell id="ZRlwQnyBhKhICBzXvatv-8" style="edgeStyle=orthogonalEdgeStyle;rounded=0;orthogonalLoop=1;jettySize=auto;html=1;exitX=0;exitY=0.5;exitDx=0;exitDy=0;entryX=1;entryY=0.5;entryDx=0;entryDy=0;" edge="1" parent="1" source="ZRlwQnyBhKhICBzXvatv-2" target="ZRlwQnyBhKhICBzXvatv-4">
          <mxGeometry relative="1" as="geometry" />
        </mxCell>
        <mxCell id="ZRlwQnyBhKhICBzXvatv-11" style="edgeStyle=orthogonalEdgeStyle;rounded=0;orthogonalLoop=1;jettySize=auto;html=1;exitX=0.5;exitY=1;exitDx=0;exitDy=0;entryX=0.5;entryY=0;entryDx=0;entryDy=0;" edge="1" parent="1" source="ZRlwQnyBhKhICBzXvatv-2" target="ZRlwQnyBhKhICBzXvatv-5">
          <mxGeometry relative="1" as="geometry" />
        </mxCell>
        <mxCell id="ZRlwQnyBhKhICBzXvatv-2" value="Asignaturas" style="whiteSpace=wrap;html=1;align=center;" vertex="1" parent="1">
          <mxGeometry x="490" y="40" width="100" height="40" as="geometry" />
        </mxCell>
        <mxCell id="ZRlwQnyBhKhICBzXvatv-12" style="edgeStyle=orthogonalEdgeStyle;rounded=0;orthogonalLoop=1;jettySize=auto;html=1;exitX=0.5;exitY=0;exitDx=0;exitDy=0;entryX=0.5;entryY=1;entryDx=0;entryDy=0;" edge="1" parent="1" source="ZRlwQnyBhKhICBzXvatv-3" target="ZRlwQnyBhKhICBzXvatv-5">
          <mxGeometry relative="1" as="geometry" />
        </mxCell>
        <mxCell id="ZRlwQnyBhKhICBzXvatv-3" value="Profesores" style="whiteSpace=wrap;html=1;align=center;" vertex="1" parent="1">
          <mxGeometry x="490" y="260" width="100" height="40" as="geometry" />
        </mxCell>
        <mxCell id="ZRlwQnyBhKhICBzXvatv-4" value="Cursa" style="shape=rhombus;perimeter=rhombusPerimeter;whiteSpace=wrap;html=1;align=center;" vertex="1" parent="1">
          <mxGeometry x="270" y="30" width="120" height="60" as="geometry" />
        </mxCell>
        <mxCell id="ZRlwQnyBhKhICBzXvatv-5" value="Imparte" style="shape=rhombus;perimeter=rhombusPerimeter;whiteSpace=wrap;html=1;align=center;" vertex="1" parent="1">
          <mxGeometry x="480" y="140" width="120" height="60" as="geometry" />
        </mxCell>
        <mxCell id="ZRlwQnyBhKhICBzXvatv-9" value="(1,N)" style="text;strokeColor=none;fillColor=none;spacingLeft=4;spacingRight=4;overflow=hidden;rotatable=0;points=[[0,0.5],[1,0.5]];portConstraint=eastwest;fontSize=12;whiteSpace=wrap;html=1;" vertex="1" parent="1">
          <mxGeometry x="190" y="60" width="40" height="30" as="geometry" />
        </mxCell>
        <mxCell id="ZRlwQnyBhKhICBzXvatv-10" value="(1,N)" style="text;strokeColor=none;fillColor=none;spacingLeft=4;spacingRight=4;overflow=hidden;rotatable=0;points=[[0,0.5],[1,0.5]];portConstraint=eastwest;fontSize=12;whiteSpace=wrap;html=1;" vertex="1" parent="1">
          <mxGeometry x="430" y="60" width="40" height="30" as="geometry" />
        </mxCell>
        <mxCell id="ZRlwQnyBhKhICBzXvatv-13" value="(1,1)" style="text;strokeColor=none;fillColor=none;spacingLeft=4;spacingRight=4;overflow=hidden;rotatable=0;points=[[0,0.5],[1,0.5]];portConstraint=eastwest;fontSize=12;whiteSpace=wrap;html=1;" vertex="1" parent="1">
          <mxGeometry x="540" y="230" width="40" height="30" as="geometry" />
        </mxCell>
        <mxCell id="ZRlwQnyBhKhICBzXvatv-14" value="(1,N)" style="text;strokeColor=none;fillColor=none;spacingLeft=4;spacingRight=4;overflow=hidden;rotatable=0;points=[[0,0.5],[1,0.5]];portConstraint=eastwest;fontSize=12;whiteSpace=wrap;html=1;" vertex="1" parent="1">
          <mxGeometry x="540" y="80" width="40" height="30" as="geometry" />
        </mxCell>
      </root>
    </mxGraphModel>
  </diagram>
</mxfile>
